<?xml version="1.0" encoding="utf-8"?>
<!-- Generator: Adobe Illustrator 16.0.0, SVG Export Plug-In . SVG Version: 6.00 Build 0)  -->
<!DOCTYPE svg PUBLIC "-//W3C//DTD SVG 1.1//EN" "http://www.w3.org/Graphics/SVG/1.1/DTD/svg11.dtd">
<svg version="1.1" id="INFO" xmlns="http://www.w3.org/2000/svg" xmlns:xlink="http://www.w3.org/1999/xlink" x="0px" y="0px"
	 width="100px" height="100px" viewBox="0 0 100 100" enable-background="new 0 0 100 100" xml:space="preserve">
<path fill="none" d="z"/>
<g id="ICON">
	<path d="M59.937,31.627c1.604-1.492,2.405-3.303,2.405-5.427c0-2.121-0.802-3.931-2.405-5.437c-1.604-1.506-3.53-2.264-5.789-2.264
		c-2.249,0-4.194,0.758-5.807,2.264c-1.604,1.505-2.415,3.316-2.415,5.437c0,2.124,0.811,3.936,2.415,5.427
		c1.613,1.492,3.558,2.24,5.807,2.24C56.406,33.868,58.332,33.119,59.937,31.627z M56.24,81.509
		c2.894-1.354,4.424-3.898,2.921-5.062c-0.866-0.671-2,0.438-2.829,0.438c-1.778,0-3.033-0.292-3.751-0.878
		c-0.729-0.591-1.078-1.687-1.078-3.304c0-0.646,0.101-1.593,0.322-2.845c0.221-1.256,0.479-2.379,0.756-3.358l3.438-12.175
		c0.322-1.118,0.562-2.348,0.691-3.682c0.12-1.35,0.185-2.283,0.185-2.81c0-2.563-0.903-4.651-2.7-6.259
		c-1.789-1.602-4.351-2.411-7.669-2.411c-1.843,0-3.807,0.272-5.862,0.984c-4.028,1.413-3.134,4.924-2.24,4.924
		c1.815,0,3.032,0.309,3.677,0.924c0.646,0.609,0.977,1.695,0.977,3.261c0,0.859-0.12,1.825-0.322,2.869
		c-0.212,1.044-0.461,2.156-0.774,3.325l-3.456,12.222c-0.295,1.284-0.517,2.435-0.664,3.455c-0.138,1.021-0.203,2.02-0.203,2.999
		c0,2.509,0.922,4.577,2.774,6.213c1.854,1.639,4.702,3.159,8.038,3.159C50.637,83.5,53.733,82.691,56.24,81.509z"/>
</g>
<path fill="none" d="z"/>
</svg>
