<?xml version="1.0" encoding="utf-8"?>
<!-- Generator: Adobe Illustrator 16.0.0, SVG Export Plug-In . SVG Version: 6.00 Build 0)  -->
<!DOCTYPE svg PUBLIC "-//W3C//DTD SVG 1.1//EN" "http://www.w3.org/Graphics/SVG/1.1/DTD/svg11.dtd">
<svg version="1.1" id="Layer_1" xmlns="http://www.w3.org/2000/svg" xmlns:xlink="http://www.w3.org/1999/xlink" x="0px" y="0px"
	 width="100px" height="100px" viewBox="0 0 100 100" enable-background="new 0 0 100 100" xml:space="preserve">
<g id="Captions">
</g>
<path fill="#333" d="M71.757,71.087H28.243c-2.399,0-4.35-1.953-4.35-4.352V33.263c0-2.399,1.952-4.349,4.35-4.349h10.878
	c2.131,0,4.902,1.255,6.307,2.857l1.449,1.664c1.013,1.157,3.255,2.172,4.795,2.172h20.084c2.399,0,4.352,1.953,4.352,4.35v26.778
	C76.108,69.134,74.156,71.087,71.757,71.087z"/>
<path fill="#333" d="M28.243,30.918c-1.293,0-2.344,1.052-2.344,2.344v33.473c0,1.292,1.051,2.344,2.344,2.344h43.514
	c1.293,0,2.346-1.052,2.346-2.344V39.957c0-1.292-1.053-2.344-2.346-2.344H51.673c-2.13,0-4.9-1.256-6.307-2.859l-1.449-1.663
	c-1.014-1.156-3.256-2.172-4.797-2.172H28.243z"/>
</svg>
