<?xml version="1.0" encoding="utf-8"?>
<!-- Generator: Adobe Illustrator 16.0.0, SVG Export Plug-In . SVG Version: 6.00 Build 0)  -->
<!DOCTYPE svg PUBLIC "-//W3C//DTD SVG 1.1//EN" "http://www.w3.org/Graphics/SVG/1.1/DTD/svg11.dtd">
<svg version="1.1" id="Settings_1_" xmlns="http://www.w3.org/2000/svg" xmlns:xlink="http://www.w3.org/1999/xlink" x="0px"
	 y="0px" width="100px" height="100px" viewBox="0 0 100 100" enable-background="new 0 0 100 100" xml:space="preserve">
<path d="M81.619,51.895c-3.878-1.038-4.756-10.13-1.575-11.965c1.042-0.605,1.852-1.462,2.386-2.45
	c-0.828-3.017-3.651-7.362-5.243-9.295c-1.165-0.054-2.354,0.212-3.438,0.838c-3.47,2.004-10.641-3.357-9.573-7.348
	c0.333-1.246,0.156-2.758-0.115-3.642c-1.972-1.02-6.641-2.391-10.109-2.73c-0.746,0.544-1.603,1.858-1.936,3.113
	c-1.131,4.22-10.085,4.833-12.005,1.507c-0.641-1.111-1.822-2.146-2.638-2.486c-2.243,0.68-7.118,3.506-9.09,5.138
	c0.136,1.155,0.163,2.498,0.825,3.644c1.919,3.326-3.278,10.723-7.382,9.623c-1.35-0.361-2.767-0.258-3.922,0.217
	c-0.953,2.109-2.394,7.67-2.53,9.914c0.272,0.612,1.896,1.686,3.193,2.033c5.586,1.498,5.63,9.69,1.583,12.027
	c-1.144,0.66-2.123,1.576-2.531,2.732c0.68,2.175,3.413,6.958,5.181,8.998c1.156,0.136,2.498-0.161,3.645-0.825
	c3.614-2.087,10.843,2.824,9.621,7.385c-0.317,1.187-0.141,2.436,0.062,3.661c2.72,1.154,7.64,2.78,10.36,2.713
	c0.883-0.816,1.428-1.954,1.739-3.113c1.069-3.993,9.898-5.267,11.985-1.652c0.583,1.01,1.399,1.97,2.351,2.514
	c2.856-0.816,7.875-3.625,9.575-5.392c0.068-1.293-0.419-2.371-1.022-3.42c-2.255-3.901,3.014-10.736,7.345-9.574
	c1.187,0.316,2.479,0.21,3.566-0.062c0.951-2.381,2.53-6.632,2.801-10.168C83.775,52.741,82.872,52.23,81.619,51.895z M68.42,54.531
	c-2.645,9.875-12.791,15.733-22.664,13.088c-9.872-2.646-15.729-12.795-13.085-22.669c2.645-9.874,12.792-15.731,22.664-13.086
	C65.207,34.509,71.064,44.657,68.42,54.531z"/>
</svg>
